<svg width="31" height="28" viewBox="0 0 31 28" fill="none" xmlns="http://www.w3.org/2000/svg">
<path fill-rule="evenodd" clip-rule="evenodd" d="M24.8162 3.75H4.07171L0.886511 9.10113C0.713384 9.39198 0.704439 9.75663 0.862482 10.056C1.02116 10.3566 1.32722 10.55 1.66667 10.55H4.08333V23.25H25.25V10.55H28.3333C28.6971 10.55 29.0196 10.3286 29.1667 9.99568C29.3132 9.66418 29.2642 9.2732 29.0371 8.99121L24.8162 3.75ZM3.30924 8.65L5.09496 5.65H10.9408L9.15504 8.65H3.30924ZM17.2721 8.65L14.8562 5.65H23.9583L26.3742 8.65H17.2721ZM13.25 21.35L13.25 6.62096L16.1394 10.2088C16.3119 10.423 16.5687 10.55 16.8431 10.55H23.4167V21.35H13.25ZM10.4468 10.0989L11.4167 8.46953L11.4167 21.35H5.91666V10.55H9.66666C9.98849 10.55 10.2819 10.3759 10.4468 10.0989Z" fill="#333333"/>
</svg>
