<svg width="50" height="50" viewBox="0 0 50 50" fill="none" xmlns="http://www.w3.org/2000/svg">
<rect x="0.5" y="0.5" width="49" height="49" stroke="#ADD17E"/>
<path d="M27.1783 24.6579L37.292 14.5443C37.7988 14.0374 37.7988 13.2157 37.292 12.7089C36.7851 12.2021 35.9634 12.2021 35.4566 12.7089L25.3428 22.8226L15.2292 12.7089C14.7223 12.2021 13.9006 12.2021 13.3938 12.7089C12.887 13.2157 12.887 14.0375 13.3938 14.5443L23.5075 24.6579L13.3938 34.7716C12.887 35.2785 12.887 36.1002 13.3938 36.607C13.9007 37.1138 14.7224 37.1138 15.2292 36.607L25.3428 26.4933L35.4565 36.607C35.9633 37.1138 36.7851 37.1138 37.2919 36.607C37.7987 36.1001 37.7987 35.2784 37.2919 34.7716L27.1783 24.6579Z" fill="#ADD17E"/>
</svg>
