<svg width="30" height="30" viewBox="0 0 30 30" fill="none" xmlns="http://www.w3.org/2000/svg">
<g opacity="0.6">
<path d="M16.4501 18.0945H23.7754C22.4896 21.7299 19.0071 24.3363 14.9301 24.3062C9.9832 24.2697 5.89278 20.3123 5.70074 15.3689C5.49488 10.0701 9.74603 5.69357 15 5.69357C17.4023 5.69357 19.5945 6.60889 21.2472 8.10875C21.6387 8.4641 22.2346 8.46635 22.6196 8.10394L25.3101 5.57171C25.7308 5.17565 25.7324 4.5068 25.3129 4.1094C22.6918 1.62628 19.1758 0.0785393 15.2985 0.00282501C7.0287 -0.158631 0.0579774 6.62179 0.000373142 14.8931C-0.0577427 23.2264 6.68011 30 15 30C23.001 30 29.5372 23.7353 29.975 15.8437C29.9867 15.7447 29.9944 12.4009 29.9944 12.4009H16.4501C15.8949 12.4009 15.445 12.8509 15.445 13.4061V17.0894C15.445 17.6446 15.895 18.0945 16.4501 18.0945Z" fill="#AEE16D"/>
</g>
</svg>
