<svg width="30" height="30" viewBox="0 0 30 30" fill="none" xmlns="http://www.w3.org/2000/svg">
<path d="M28.3427 0.00100708H1.65577C0.741936 0.00100708 0 0.741461 0 1.65678V28.3438C0 29.2591 0.741936 30.0005 1.65577 30.0005H16.0232V18.3829H12.114V13.8548H16.0232V10.5156C16.0232 6.64138 18.3888 4.53067 21.8456 4.53067C23.5029 4.53067 24.924 4.65465 25.3384 4.7085V8.75803L22.9407 8.75901C21.0612 8.75901 20.6986 9.6526 20.6986 10.9631V13.8533H25.1828L24.5965 18.381H20.6981V29.999H28.3423C29.2571 29.999 29.9995 29.2566 29.9995 28.3438V1.65579C29.999 0.741461 29.2576 0.00100708 28.3427 0.00100708Z" fill="white"/>
</svg>
